<svg width="68" height="117" viewBox="0 0 68 117" fill="none" xmlns="http://www.w3.org/2000/svg">
<path fill-rule="evenodd" clip-rule="evenodd" d="M6.50005 116.38H0.290039V99.25H6.50005V100.35H1.43004V106.85H6.21005V107.95H1.43004V115.28H6.50005V116.38ZM18.54 116.38H17.08L10.6001 101.02H10.5C10.6 102.08 10.64 103.1 10.64 104.09V116.38H9.52005V99.25H11L17.44 114.44H17.51C17.45 113.16 17.42 112.09 17.42 111.23V99.26H18.54V116.38ZM28.5101 116.38H22.3V99.25H28.5101V100.35H23.44V106.85H28.22V107.95H23.44V115.28H28.5101V116.38ZM32.6701 108.89V116.38H31.53V99.25H33.87C35.54 99.25 36.7701 99.64 37.5401 100.43C38.3101 101.22 38.7001 102.4 38.7001 103.97C38.7001 105.16 38.4901 106.13 38.0701 106.9C37.6501 107.67 36.9401 108.24 35.9501 108.63L39.3501 116.39H38.06L34.86 108.9H32.6701V108.89ZM32.6701 107.83H34.28C35.32 107.83 36.12 107.51 36.69 106.87C37.25 106.23 37.53 105.28 37.53 104.01C37.53 102.72 37.2401 101.79 36.6701 101.21C36.0901 100.65 35.19 100.36 33.96 100.36H32.68V107.83H32.6701ZM47.36 107.74H51.11V115.85C49.81 116.36 48.46 116.61 47.05 116.61C45.18 116.61 43.7301 115.83 42.7001 114.26C41.6701 112.7 41.15 110.53 41.15 107.76C41.15 104.98 41.68 102.82 42.75 101.29C43.82 99.76 45.31 98.99 47.25 98.99C48.55 98.99 49.7701 99.36 50.9201 100.09L50.37 101.1C49.29 100.41 48.25 100.07 47.25 100.07C45.65 100.07 44.43 100.73 43.61 102.04C42.79 103.35 42.37 105.26 42.37 107.78C42.37 110.24 42.78 112.13 43.62 113.48C44.45 114.83 45.63 115.51 47.15 115.51C48.25 115.51 49.1801 115.37 49.9501 115.07V108.83H47.36V107.74ZM54.33 116.38V99.25H55.47V116.38H54.33ZM65.7001 116.38L64.19 110.17H60.03L58.55 116.38H57.3501L61.47 99.25H62.65L66.87 116.38H65.7001ZM63.9201 109.01L62.41 102.62C62.25 101.9 62.14 101.22 62.05 100.58C61.98 101.26 61.87 101.94 61.72 102.62L60.25 109.01H63.9201Z" fill="white"></path>
<path fill-rule="evenodd" clip-rule="evenodd" d="M48.3296 0C37.8696 0 29.3896 8.48 29.3896 18.94V37.88H48.3296C58.7896 37.88 67.2696 29.4 67.2696 18.94V0H48.3296Z" fill="#FFB800"></path>
<path fill-rule="evenodd" clip-rule="evenodd" d="M54.6795 19.61C54.6795 23.12 51.8395 25.96 48.3295 25.96C44.8195 25.96 41.9795 23.12 41.9795 19.61C41.9795 16.1 44.8195 13.26 48.3295 13.26C51.8295 13.26 54.6795 16.1 54.6795 19.61Z" fill="white"></path>
<path fill-rule="evenodd" clip-rule="evenodd" d="M47.5196 31.6201C47.2296 31.6001 46.9496 31.5701 46.6596 31.5301L47.3296 26.6801C47.4996 26.7001 47.6696 26.7201 47.8396 26.7301L47.5196 31.6201ZM49.9296 31.5401L49.2796 26.6801C49.4496 26.6601 49.6196 26.6301 49.7896 26.5901L50.7896 31.3901C50.4996 31.4601 50.2196 31.5001 49.9296 31.5401ZM44.3096 30.9601C44.0396 30.8601 43.7696 30.7601 43.4996 30.6401L45.4696 26.1501C45.6296 26.2201 45.7796 26.2801 45.9396 26.3401L44.3096 30.9601ZM53.0896 30.6701L51.1496 26.1701C51.3096 26.1001 51.4596 26.0301 51.6096 25.9501L53.8696 30.3001C53.6196 30.4301 53.3596 30.5501 53.0896 30.6701ZM41.3996 29.4601L44.2196 25.4601C44.0796 25.3601 43.9396 25.2601 43.8096 25.1501L40.7096 28.9401C40.9296 29.1101 41.1596 29.2901 41.3996 29.4601ZM55.8996 28.9701C56.1196 28.7901 56.3396 28.6001 56.5496 28.4001L53.1996 24.8201C53.0796 24.9401 52.9496 25.0501 52.8096 25.1601L55.8996 28.9701ZM38.9996 27.2201C38.8196 27.0001 38.6396 26.7701 38.4796 26.5301L42.4896 23.7101C42.5896 23.8501 42.6896 23.9901 42.7996 24.1201L38.9996 27.2201ZM58.1396 26.5901L54.1496 23.7501C54.2496 23.6101 54.3396 23.4701 54.4296 23.3201L58.6096 25.8701C58.4696 26.1101 58.3096 26.3501 58.1396 26.5901ZM37.2896 24.4301L41.7796 22.4701C41.7096 22.3101 41.6496 22.1601 41.5896 22.0001L36.9696 23.6301C37.0696 23.9001 37.1796 24.1701 37.2896 24.4301ZM59.6596 23.6801C59.7596 23.4101 59.8396 23.1401 59.9196 22.8601L55.1996 21.5401C55.1496 21.7101 55.0996 21.8701 55.0396 22.0301L59.6596 23.6801ZM36.3996 21.2701C36.3596 20.9901 36.3296 20.7001 36.3096 20.4101L41.1996 20.0801C41.2096 20.2501 41.2296 20.4201 41.2496 20.5901L36.3996 21.2701ZM60.3296 20.4701L55.4396 20.1201C55.4496 19.9501 55.4596 19.7801 55.4596 19.6101L60.3596 19.5701V19.6101C60.3696 19.9001 60.3496 20.1901 60.3296 20.4701ZM41.2496 18.6501L36.3896 18.0001C36.4296 17.7101 36.4796 17.4301 36.5396 17.1501L41.3396 18.1501C41.2996 18.3101 41.2696 18.4801 41.2496 18.6501ZM55.3196 18.1501C55.2896 17.9801 55.2496 17.8201 55.1996 17.6501L59.9096 16.3101C59.9896 16.5901 60.0596 16.8701 60.1196 17.1501L55.3196 18.1501ZM41.7696 16.7801L37.2696 14.8301C37.3796 14.5701 37.5096 14.3001 37.6396 14.0501L41.9796 16.3101C41.9096 16.4701 41.8396 16.6301 41.7696 16.7801ZM54.6696 16.3201L59.0196 14.0701C58.8896 13.8101 58.7396 13.5601 58.5896 13.3201L54.4196 15.8901C54.4996 16.0301 54.5896 16.1701 54.6696 16.3201ZM42.7796 15.1201C42.8896 14.9901 42.9996 14.8601 43.1196 14.7301L39.5496 11.3801C39.3496 11.5901 39.1596 11.8101 38.9796 12.0301L42.7796 15.1201ZM53.5496 14.7401C53.4296 14.6101 53.3096 14.4901 53.1896 14.3801L56.5196 10.7901C56.7296 10.9901 56.9396 11.1901 57.1296 11.4001L53.5496 14.7401ZM44.1996 13.7901L41.3596 9.80007C41.5996 9.63007 41.8396 9.48007 42.0796 9.33007L44.6296 13.5101C44.4796 13.5901 44.3396 13.6901 44.1996 13.7901ZM52.0396 13.5101C51.8896 13.4201 51.7396 13.3401 51.5896 13.2601L53.8296 8.90007C54.0896 9.03007 54.3396 9.17007 54.5796 9.32007L52.0396 13.5101ZM45.9196 12.8901C46.0796 12.8301 46.2396 12.7801 46.4096 12.7301L45.0996 8.01007C44.8196 8.09007 44.5396 8.18007 44.2696 8.27007L45.9196 12.8901ZM50.2596 12.7401C50.0996 12.6901 49.9296 12.6501 49.7596 12.6201L50.7396 7.82007C51.0196 7.88007 51.2996 7.95007 51.5796 8.02007L50.2596 12.7401ZM47.8196 12.4901L47.4696 7.60007C47.7496 7.58007 48.0396 7.57007 48.3296 7.57007V12.4701C48.1596 12.4701 47.9896 12.4801 47.8196 12.4901Z" fill="white"></path>
<path d="M6.65993 26.3701H0.169922V92.4201H6.65993V26.3701Z" fill="white"></path>
<path fill-rule="evenodd" clip-rule="evenodd" d="M15.6696 48.36C16.7496 47.22 18.0296 46.33 19.4996 45.7C20.9696 45.07 22.5796 44.75 24.3196 44.75V51.24C22.6396 51.24 21.2896 51.81 20.2596 52.95C19.1196 53.97 18.5496 55.29 18.5496 56.92V92.42H12.0596V56.92C12.0596 55.24 12.3896 53.66 13.0496 52.19C13.7196 50.71 14.5896 49.44 15.6696 48.36Z" fill="white"></path>
<path d="M36.1296 45.6499H29.6396V92.4199H36.1296V45.6499Z" fill="white"></path>
<path fill-rule="evenodd" clip-rule="evenodd" d="M54.6898 93.3201C53.0098 93.3201 51.4297 93.0001 49.9597 92.3701C48.4897 91.7401 47.2098 90.8501 46.1298 89.7101C44.9898 88.6301 44.0998 87.3501 43.4698 85.8801C42.8398 84.4101 42.5197 82.8301 42.5197 81.1501H49.0098C49.0098 82.6501 49.5498 84.0001 50.6298 85.2101C51.8298 86.2901 53.1797 86.8301 54.6797 86.8301C56.1797 86.8301 57.5297 86.2901 58.7397 85.2101C59.8197 84.0101 60.3597 82.6601 60.3597 81.1501C60.3597 80.1901 60.2398 79.4401 59.9998 78.9001C59.7598 78.2401 59.3998 77.5801 58.9198 76.9201C58.4398 76.2601 57.8198 75.6101 57.0698 74.9801C56.3198 74.3501 55.4898 73.7001 54.5898 73.0401C53.9898 72.5601 53.3697 72.1101 52.7397 71.6901C52.1097 71.2701 51.4597 70.8201 50.7997 70.3401C49.8997 69.6801 49.0098 68.9701 48.1398 68.2201C47.2698 67.4701 46.4698 66.6401 45.7498 65.7401C44.9098 64.7201 44.1598 63.5201 43.4998 62.1401C42.8398 60.5201 42.5098 58.8001 42.5098 57.0001C42.5098 55.2601 42.8297 53.6701 43.4597 52.2201C44.0897 50.7801 44.9798 49.4901 46.1198 48.3401C47.1998 47.2601 48.4798 46.4001 49.9498 45.7701C51.4198 45.1401 52.9997 44.8201 54.6797 44.8201C56.3597 44.8201 57.9398 45.1401 59.4098 45.7701C60.8798 46.4001 62.1897 47.2601 63.3297 48.3401C64.4097 49.4201 65.2698 50.7001 65.8997 52.1701C66.5297 53.6401 66.8498 55.2501 66.8498 56.9901H60.3597C60.3597 55.3701 59.8197 54.0201 58.7397 52.9401C57.5997 51.8001 56.2497 51.2301 54.6797 51.2301C53.1197 51.2301 51.7598 51.8001 50.6298 52.9401C49.5498 54.0201 49.0098 55.3701 49.0098 56.9901C49.0098 57.9501 49.1298 58.7001 49.3698 59.2401C49.6098 59.9001 49.9698 60.5601 50.4498 61.2201C50.9298 61.8801 51.5497 62.5401 52.2997 63.2001C53.0497 63.8601 53.8798 64.5201 54.7798 65.1801C55.3798 65.6601 55.9998 66.1101 56.6298 66.5301C57.2598 66.9501 57.9098 67.4001 58.5698 67.8801C59.4698 68.5401 60.3397 69.2501 61.1797 70.0001C62.0197 70.7501 62.8297 71.5801 63.6097 72.4801C64.4497 73.3801 65.1997 74.5501 65.8597 75.9901C66.5197 77.6101 66.8498 79.3201 66.8498 81.1301C66.8498 82.8101 66.5297 84.3901 65.8997 85.8601C65.2698 87.3301 64.4097 88.6101 63.3297 89.6901C62.1897 90.8301 60.8798 91.7201 59.4098 92.3501C57.9498 93.0001 56.3698 93.3201 54.6898 93.3201Z" fill="white"></path>
</svg>